<svg xmlns="http://www.w3.org/2000/svg" width="400.26" height="400.26" viewBox="0 0 400.26 400.26"><title>Asset 65</title><g id="Layer_2" data-name="Layer 2"><g id="DONE"><rect x="46.42" y="46.42" width="307.41" height="307.41" rx="41.63" transform="translate(-82.9 200.13) rotate(-45)" fill="#5d3795"/><path d="M246,173.39v33.72a3.22,3.22,0,0,1-5.07,2.63l-14.18-10V212a6.54,6.54,0,0,1-6.54,6.54H171.87a6.54,6.54,0,0,1-6.54-6.54V168.57a6.54,6.54,0,0,1,6.54-6.54h48.36a6.54,6.54,0,0,1,6.54,6.54v12L241,170.75A3.22,3.22,0,0,1,246,173.39Zm39.85-25.32v84.35c0,12.86-11,23.29-24.56,23.29h-98.7L114.39,290V148.07c0-12.86,11-23.29,24.56-23.29H261.31C274.87,124.78,285.87,135.21,285.87,148.07Zm-12.81,0c0-5.78-5.27-10.48-11.75-10.48H139c-6.48,0-11.75,4.7-11.75,10.48V265.14l28-19.88,3.33-2.36H261.31c6.48,0,11.75-4.7,11.75-10.48Z" fill="#fff"/></g></g></svg>