<svg xmlns="http://www.w3.org/2000/svg" width="400.26" height="400.26" viewBox="0 0 400.26 400.26"><title>Asset 66</title><g id="Layer_2" data-name="Layer 2"><g id="DONE"><rect x="46.42" y="46.42" width="307.41" height="307.41" rx="41.63" transform="translate(-82.9 200.13) rotate(-45)" fill="#27b495"/><path d="M279.68,154.88V131.15h-9.35v-8.9a11.86,11.86,0,0,0-11.86-11.86H133v24.5h-3.27a5.63,5.63,0,0,0-5.63,5.62v1.35a5.63,5.63,0,0,0,5.63,5.62H133v15h-3.27a5.63,5.63,0,0,0-5.63,5.62v1.35a5.62,5.62,0,0,0,5.63,5.62H133v15h-3.27a5.63,5.63,0,0,0-5.63,5.62V197a5.62,5.62,0,0,0,5.63,5.62H133v15h-3.27a5.63,5.63,0,0,0-5.63,5.63v1.34a5.63,5.63,0,0,0,5.63,5.63H133v15h-3.27a5.63,5.63,0,0,0-5.63,5.63v1.34a5.63,5.63,0,0,0,5.63,5.63H133v23.61H258.47a11.86,11.86,0,0,0,11.86-11.87V224.32h9.35V200.59h-9.35v-11h9.35V165.87h-9.35v-11Zm-21.94,107.3a5.56,5.56,0,0,1-5.56,5.56H145.63v-10a5.62,5.62,0,0,0,5.2-5.61V250.8a5.61,5.61,0,0,0-5.2-5.6v-15a5.62,5.62,0,0,0,5.2-5.61v-1.34a5.62,5.62,0,0,0-5.2-5.61v-15a5.61,5.61,0,0,0,5.2-5.6v-1.35a5.62,5.62,0,0,0-5.2-5.6V175a5.61,5.61,0,0,0,5.2-5.6v-1.35a5.62,5.62,0,0,0-5.2-5.6v-15a5.62,5.62,0,0,0,5.2-5.6v-1.35a5.62,5.62,0,0,0-5.2-5.6V124H252.18a5.57,5.57,0,0,1,5.56,5.57ZM165.29,153.26H241v37.21H165.29Z" fill="#fff"/></g></g></svg>