<svg xmlns="http://www.w3.org/2000/svg" width="400.26" height="400.26" viewBox="0 0 400.26 400.26"><title>Asset 67</title><g id="Layer_2" data-name="Layer 2"><g id="DONE"><rect x="46.42" y="46.42" width="307.41" height="307.41" rx="41.63" transform="translate(-82.9 200.13) rotate(-45)" fill="#fc9d2a"/><path d="M199.39,129.22a70.91,70.91,0,1,1-70.91,70.91,71,71,0,0,1,70.91-70.91m0-14.76a85.67,85.67,0,1,0,85.67,85.67,85.68,85.68,0,0,0-85.67-85.67ZM177.74,168.4v60.06a6.64,6.64,0,0,0,10,5.75l52-30a6.64,6.64,0,0,0,0-11.5l-52-30A6.65,6.65,0,0,0,177.74,168.4Z" fill="#fff"/></g></g></svg>