<svg xmlns="http://www.w3.org/2000/svg" width="420.84" height="420.84" viewBox="0 0 420.84 420.84"><title>Asset 40</title><g id="Layer_2" data-name="Layer 2"><g id="_1_copy" data-name="1 copy"><rect x="21.75" y="138.42" width="144" height="144" rx="19.5" transform="translate(-121.33 127.92) rotate(-45)" fill="#318bcb"/><rect x="138.42" y="255.09" width="144" height="144" rx="19.5" transform="translate(-169.66 244.59) rotate(-45)" fill="#5d3795"/><rect x="138.42" y="21.75" width="144" height="144" rx="19.5" transform="translate(-4.66 176.25) rotate(-45)" fill="#f16922"/><rect x="255.09" y="138.42" width="144" height="144" rx="19.5" transform="translate(-52.99 292.92) rotate(-45)" fill="#6aaa44"/><path d="M281.2,179.22H373v6H281.2Z" fill="#fff"/><path d="M281.2,198.78H373v6H281.2Z" fill="#fff"/><path d="M281.2,218.34H373v6H281.2Z" fill="#fff"/><path d="M281.2,237.9H373v6H281.2Z" fill="#fff"/><path d="M281.2,243.92v-64.7h6v64.7Z" fill="#fff"/><path d="M309.79,243.92v-64.7h6v64.7Z" fill="#fff"/><path d="M338.38,243.92v-64.7h6v64.7Z" fill="#fff"/><path d="M367,243.92v-64.7h6v64.7Z" fill="#fff"/><path d="M47.86,179.22h91.78v6H47.86Z" fill="#fff"/><path d="M47.86,198.78h91.78v6H47.86Z" fill="#fff"/><path d="M47.86,218.34h91.78v6H47.86Z" fill="#fff"/><path d="M47.86,237.9h91.78v6H47.86Z" fill="#fff"/><path d="M210.07,60.53a33.22,33.22,0,1,1-33.22,33.22,33.25,33.25,0,0,1,33.22-33.22m0-6.91A40.13,40.13,0,1,0,250.2,93.75a40.13,40.13,0,0,0-40.13-40.13Z" fill="#fff"/><polygon points="217.73 59.23 210.07 93.75 245.97 88.52 242.86 78.71 235.8 67.41 226.2 61.77 217.73 59.23" fill="#fff"/><g id="cam"><rect x="194.12" y="309.24" width="28.78" height="26.48" rx="3.06" fill="#fff"/><path d="M229.54,331.59l-8.49-6a1.5,1.5,0,0,1-.64-1.23v-4a1.5,1.5,0,0,1,.66-1.24l8.49-5.84a1.5,1.5,0,0,1,2.35,1.24v15.79A1.5,1.5,0,0,1,229.54,331.59Z" fill="#fff"/></g><g id="chat_cam" data-name="chat cam"><path d="M239.08,297.8c3,0,5.5,2.2,5.5,4.91v39.51c0,2.7-2.47,4.9-5.5,4.9H190.93l-1.56,1.11-13.12,9.32V302.71c0-2.71,2.48-4.91,5.51-4.91h57.32m0-6H181.76c-6.35,0-11.51,4.88-11.51,10.91v66.46l22.59-16.05h46.24c6.35,0,11.5-4.88,11.5-10.9V302.71c0-6-5.15-10.91-11.5-10.91Z" fill="#fff"/></g></g></g></svg>