<svg xmlns="http://www.w3.org/2000/svg" width="400.26" height="400.26" viewBox="0 0 400.26 400.26"><title>Asset 64</title><g id="Layer_2" data-name="Layer 2"><g id="DONE"><rect x="46.42" y="46.42" width="307.41" height="307.41" rx="41.63" transform="translate(-82.9 200.13) rotate(-45)" fill="#6aaa44"/><path d="M285.25,129.59H102.16V267.71H298.1V129.59Zm-61,12.84v28.91H176V142.43Zm0,41.76V213.1H176V184.19ZM115,142.43h48.18v28.91H115Zm0,41.76h48.18V213.1H115Zm0,70.67V226h48.18v28.91Zm61,0V226h48.18v28.91Zm109.21,0H237.07V226h48.18Zm0-41.76H237.07V184.19h48.18Zm0-41.76H237.07V142.43h48.18Z" fill="#fff"/></g></g></svg>