<svg xmlns="http://www.w3.org/2000/svg" xmlns:xlink="http://www.w3.org/1999/xlink" width="400.26" height="400.26" viewBox="0 0 400.26 400.26"><defs><linearGradient id="linear-gradient" x1="91.44" y1="-10681.7" x2="308.82" y2="-10899.08" gradientTransform="matrix(1, 0, 0, -1, 0, -10590.26)" gradientUnits="userSpaceOnUse"><stop offset="0" stop-color="#fff"/><stop offset="1" stop-color="#fff" stop-opacity="0"/></linearGradient></defs><title>uninstall_1</title><g id="Layer_2" data-name="Layer 2"><g id="Layer_20" data-name="Layer 20"><path d="M170.69,12.19,12.19,170.69a41.65,41.65,0,0,0,0,58.88l158.5,158.5a41.63,41.63,0,0,0,58.88,0l158.5-158.5a41.65,41.65,0,0,0,0-58.88L229.57,12.19A41.65,41.65,0,0,0,170.69,12.19Z" fill="#353535"/><path d="M170.69,12.19,12.19,170.69a41.65,41.65,0,0,0,0,58.88l158.5,158.5a41.63,41.63,0,0,0,58.88,0l158.5-158.5a41.65,41.65,0,0,0,0-58.88L229.57,12.19A41.65,41.65,0,0,0,170.69,12.19Z" fill-opacity="0.1" fill="url(#linear-gradient)"/><path d="M200.13,129.22A71,71,0,1,1,150,150,70.95,70.95,0,0,1,200.13,129.22Zm0-14.76a85.68,85.68,0,1,0,60.58,25.1A85.65,85.65,0,0,0,200.13,114.46Z" fill="#fff"/><path d="M178.57,167.78a7.63,7.63,0,0,0-10.79,10.79l21.57,21.56L167.78,221.7a7.63,7.63,0,0,0,10.79,10.78l21.56-21.57,21.57,21.57a7.63,7.63,0,0,0,10.78-10.79l-21.57-21.56,21.57-21.56a7.63,7.63,0,0,0-10.78-10.79l-21.57,21.57Z" fill="#fff" fill-rule="evenodd"/></g></g></svg>