<svg xmlns="http://www.w3.org/2000/svg" width="400.26" height="400.26" viewBox="0 0 400.26 400.26"><title>Asset 68</title><g id="Layer_2" data-name="Layer 2"><g id="DONE"><rect x="46.42" y="46.42" width="307.41" height="307.41" rx="41.63" transform="translate(-82.9 200.13) rotate(-45)" fill="#2fb6e7"/><path d="M142.33,176.18a15.94,15.94,0,1,1,15.93,15.94A15.93,15.93,0,0,1,142.33,176.18Zm150.54-29.53v112A19.37,19.37,0,0,1,273.52,278H127.14a19.37,19.37,0,0,1-19.35-19.35v-112a19.37,19.37,0,0,1,19.35-19.35H273.52A19.37,19.37,0,0,1,292.87,146.65Zm-172.24,0v95.51l19.05-18.54a18.2,18.2,0,0,1,24.61-.82l13.33,11.36,45.53-45a18,18,0,0,1,25-.33L280,218.74V146.65a6.51,6.51,0,0,0-6.5-6.5H127.14A6.51,6.51,0,0,0,120.63,146.65ZM280,258.63V236.34l-40.67-38.11a5.18,5.18,0,0,0-7.18.1l-53.9,53.25-22.31-19a5.43,5.43,0,0,0-7.32.24L120.77,260a6.53,6.53,0,0,0,6.37,5.18H273.52A6.51,6.51,0,0,0,280,258.63Z" fill="#fff"/></g></g></svg>